<svg width="128" height="128" viewBox="0 0 128 128" fill="none" xmlns="http://www.w3.org/2000/svg">
<path d="M59.691 2.09424H68.062C91.789 4.53924 109.062 16.3522 119.875 37.5392C123.098 44.6172 125.027 52.0002 125.66 59.6912V68.0622C123.215 91.7892 111.402 109.062 90.215 119.875C83.137 123.098 75.754 125.027 68.062 125.66H59.692C35.965 123.215 18.692 111.402 7.87499 90.2152C4.65199 83.1372 2.72699 75.7542 2.09399 68.0622V59.6922C4.53899 35.9652 16.352 18.6922 37.539 7.87524C44.617 4.65224 52 2.72724 59.691 2.09424Z" fill="#1D1D1D"/>
<path d="M111.383 63.3828C111.117 56.7968 109.395 50.6408 106.215 44.9218C106.85 43.0219 107.061 41.0059 106.832 39.0158C106.324 37.7538 105.382 37.0588 104 36.9218C101.87 36.7995 99.7355 36.7592 97.6021 36.8008C98.0431 36.6008 98.5351 36.4768 99.0781 36.4298C96.2879 32.2106 92.7898 28.5051 88.7381 25.4768C83.5551 21.2028 77.5631 19.0698 70.7701 19.0778C65.3951 19.1878 60.3871 20.6208 55.7541 23.3828C45.9451 28.9928 37.8241 36.4568 31.3831 45.7848C29.3831 46.0148 27.3711 46.1368 25.3551 46.1518C14.8911 44.5078 11.8551 48.5318 16.2461 58.2148C18.0214 61.7628 19.6632 65.376 21.1681 69.0468C20.9451 71.9968 20.7811 74.9488 20.6761 77.9068C17.4902 83.0469 14.4929 88.3014 11.6901 93.6598C11.5261 93.9878 11.3621 93.9878 11.1981 93.6598C3.16706 78.6098 1.40106 62.8548 5.90506 46.3978C12.6751 26.1758 26.1751 12.6758 46.3971 5.90583C68.3551 0.129833 87.8831 4.64083 104.984 19.4458C120.644 34.7498 126.758 53.2538 123.324 74.9528C120.512 88.9958 113.742 100.687 103.016 110.031C102.476 110.504 101.902 110.832 101.293 111.016C99.7581 106.437 100.043 101.969 102.153 97.6018C105.271 92.509 107.752 87.0525 109.539 81.3548C111.297 75.4368 111.91 69.4488 111.383 63.3828Z" fill="#ABABAB"/>
<path d="M88.738 25.4768C92.7897 28.5051 96.2879 32.2106 99.078 36.4298C98.5686 36.4686 98.0694 36.5938 97.602 36.7998C93.3873 37.0863 89.2387 37.999 85.293 39.5078C81.437 39.6948 77.582 39.8158 73.723 39.8748C72.743 40.2728 71.758 40.3158 70.77 39.9998C67.992 39.8828 65.695 38.7728 63.875 36.6758C61.145 35.0078 58.273 34.6799 55.262 35.6909C53.132 37.1519 52.352 39.1608 52.922 41.7228C54.23 44.0468 54.598 46.5078 54.032 49.1088C53.7966 49.5034 53.5901 49.9145 53.414 50.3388C46.5702 56.6016 40.4598 63.6213 35.2 71.2628C33.6368 73.9795 32.398 76.8703 31.509 79.8758C31.017 84.1488 32.782 87.0598 36.802 88.6178C39.0118 89.4961 41.3289 90.0755 43.692 90.3409C41.724 91.8369 39.505 92.3288 37.048 91.8168C33.9415 91.2734 30.9205 90.3212 28.064 88.9848C25.1188 94.2984 22.368 99.7173 19.817 105.231C18.1748 103.38 16.5744 101.493 15.017 99.5708C14.9363 99.4194 14.894 99.2505 14.894 99.0788C14.894 98.9072 14.9363 98.7383 15.017 98.5868C17.1146 93.6539 19.4132 88.8089 21.907 84.0639C23.189 86.3329 25.037 87.8528 27.447 88.6178C25.517 86.7668 24.325 84.5078 23.876 81.8478C23.4249 77.6228 23.8449 73.3502 25.11 69.2938C30.048 53.4538 38.95 40.3638 51.817 30.0318C57.368 26.0668 63.521 23.5238 70.278 22.3988C76.681 21.9618 82.837 22.9848 88.739 25.4778L88.738 25.4768Z" fill="#FCFCFC"/>
<path d="M70.77 40.0001C67.3202 41.2284 63.9492 42.6674 60.676 44.3091C58.4286 45.9819 56.2521 47.7478 54.152 49.6021C54.0976 49.5335 54.0587 49.4538 54.038 49.3687C54.0173 49.2836 54.0152 49.1951 54.032 49.1091C54.598 46.5081 54.23 44.0471 52.922 41.7231C52.352 39.1601 53.132 37.1531 55.262 35.6911C58.273 34.6801 61.145 35.0081 63.875 36.6761C65.695 38.7731 67.992 39.8831 70.77 40.0001Z" fill="#1D1D1D"/>
<path d="M97.602 36.8C99.734 36.758 101.867 36.8 104 36.922C105.383 37.059 106.324 37.754 106.832 39.016C107.061 41.0061 106.85 43.0221 106.215 44.922C104.707 49.132 102.406 52.863 99.325 56.125C97.168 57.582 94.871 57.828 92.43 56.863C87.031 55.253 82.723 52.176 79.508 47.629C78.484 45.047 79.18 43.035 81.602 41.602C82.832 40.902 84.062 40.207 85.293 39.508C89.2387 37.9991 93.3873 37.0864 97.602 36.8Z" fill="#1D1D1D"/>
<path d="M85.293 39.5078C84.063 40.2068 82.832 40.9018 81.602 41.6018C79.18 43.0348 78.484 45.0468 79.508 47.6288C82.723 52.1758 87.031 55.2538 92.43 56.8628C94.871 57.8278 97.168 57.5818 99.324 56.1248C102.406 52.8628 104.707 49.1328 106.214 44.9218C109.394 50.6408 111.117 56.7968 111.383 63.3818C110.192 67.2384 108.584 70.9535 106.586 74.4608C105.653 75.8053 104.625 77.0806 103.508 78.2768C102.324 79.0903 101.175 79.9531 100.063 80.8628L99.816 80.4928C100.934 76.3648 101.226 72.0569 100.676 67.8158C100.464 66.6835 100.047 65.5993 99.446 64.6168C99.065 70.0863 97.645 75.433 95.262 80.3708C92.09 86.3208 87.211 88.4138 80.617 86.6448C70.757 83.8318 62.102 78.9488 54.645 71.9998C55.1202 74.9601 55.9473 77.8529 57.109 80.6168C58.629 85.2028 59.039 89.8788 58.339 94.6448C58.1097 95.6606 57.7801 96.6511 57.355 97.6018C54.0279 103.021 51.1461 108.701 48.738 114.586C47.9341 116.754 47.2766 118.974 46.77 121.23C46.709 121.352 46.6221 121.459 46.5154 121.544C46.4087 121.63 46.2847 121.69 46.152 121.723C35.895 118.503 27.113 113.008 19.816 105.23C22.3671 99.7163 25.118 94.2974 28.063 88.9838C30.9196 90.3201 33.9405 91.2724 37.047 91.8158C39.504 92.3278 41.723 91.8358 43.691 90.3398C41.328 90.0745 39.0108 89.4951 36.801 88.6168C32.781 87.0588 31.016 84.1478 31.508 79.8748C32.3971 76.8693 33.6359 73.9785 35.199 71.2618C40.4593 63.6209 46.5701 56.6019 53.414 50.3398C53.59 49.9138 53.797 49.5038 54.031 49.1098C54.0146 49.1957 54.0169 49.2841 54.0378 49.369C54.0586 49.454 54.0976 49.5334 54.152 49.6018C56.2522 47.7475 58.4287 45.9817 60.676 44.3088C63.9493 42.6671 67.3203 41.2281 70.77 39.9998C71.758 40.3158 72.742 40.2728 73.723 39.8748C77.586 39.8158 81.441 39.6908 85.293 39.5078Z" fill="#5D5D5D"/>
<path d="M102.031 83.0781C100.669 88.8374 98.7309 94.4449 96.246 99.8161C95.726 100.789 94.946 101.446 93.906 101.786L93.66 101.414C94.7239 98.4565 95.2248 95.326 95.137 92.1841C94.2511 95.8746 92.8865 99.4334 91.078 102.77C89.188 103.547 87.258 103.668 85.293 103.137C84.6826 102.369 84.2225 101.493 83.937 100.555C83.3037 97.4735 82.9341 94.3435 82.832 91.1991C90.637 91.7271 97.035 89.0191 102.032 83.0791L102.031 83.0781Z" fill="#FBFBFB"/>
</svg>
