<svg width="128" height="128" viewBox="0 0 128 128" fill="none" xmlns="http://www.w3.org/2000/svg">
<path d="M23.492 88.0268L6.27698 74.4338L16.41 55.6758L31.633 60.7698L23.492 88.0268Z" fill="#68646F"/>
<path d="M121.988 36.6797L119.883 104.46L74.8 122.517L50.25 106.668L121.988 36.6797Z" fill="black"/>
<path d="M121.988 36.6804L99.68 58.4404L71.035 23.2974L85.175 7.39844L121.988 36.6804Z" fill="#5D5D5D"/>
<path d="M50.25 106.668L14.398 119.625L21.906 93.3324L31.633 60.7704L4.95996 51.8484L21.906 5.48438L60.207 10.0084L99.68 58.4404L50.25 106.668Z" fill="black"/>
<path d="M27.4301 27.4297H100.57V100.57H27.4301V27.4297Z" fill="white"/>
<path d="M36.547 86.7463H63.977V91.3203H36.547V86.7463ZM50.238 41.5943V36.5983H36.598V41.5943H40.422V58.8553H36.598V63.8553H50.238V58.8553H46.422V41.5943H50.238ZM63.316 64.2423C61.4571 64.3034 59.614 63.8835 57.965 63.0233C56.6093 62.296 55.4021 61.3208 54.406 60.1483L58.172 55.9413C58.859 56.7193 59.656 57.3913 60.539 57.9413C61.3251 58.4298 62.2346 58.6831 63.16 58.6713C63.6545 58.6961 64.1486 58.6145 64.6089 58.432C65.0691 58.2495 65.4849 57.9703 65.828 57.6133C66.5628 56.621 66.9102 55.3946 66.805 54.1643V36.5703H72.898V54.4303C72.9255 55.8764 72.6994 57.3162 72.23 58.6843C71.8288 59.8219 71.1731 60.8529 70.3128 61.6984C69.4525 62.544 68.4104 63.1818 67.266 63.5633C65.9662 64.0013 64.6014 64.215 63.23 64.1953" fill="black"/>
</svg>
