<svg width="128" height="128" viewBox="0 0 128 128" fill="none" xmlns="http://www.w3.org/2000/svg">
<path d="M64 75.3996C70.296 75.3996 75.4 70.2957 75.4 63.9996C75.4 57.7036 70.296 52.5996 64 52.5996C57.7039 52.5996 52.6 57.7036 52.6 63.9996C52.6 70.2957 57.7039 75.3996 64 75.3996Z" fill="black"/>
<path d="M107.3 45.1996C105.1 44.3996 102.8 43.5996 100.4 42.8996C101 40.4996 101.5 38.0996 101.9 35.7996C104 22.5996 101.7 13.2996 95.3 9.69961C93.4 8.59961 91.3 8.09961 88.9 8.09961C81.9 8.09961 73 13.2996 64 21.9996C55 13.2996 46.1 8.09961 39.1 8.09961C36.7 8.09961 34.6 8.59961 32.7 9.69961C26.3 13.3996 24 22.6996 26.1 35.7996C26.5 38.0996 27 40.4996 27.6 42.8996C25.2 43.5996 22.9 44.2996 20.7 45.1996C8.20003 49.9996 1.40002 56.5996 1.40002 63.9996C1.40002 71.3996 8.30003 77.9996 20.7 82.7996C22.9 83.5996 25.2 84.3996 27.6 85.0996C27 87.4996 26.5 89.8996 26.1 92.1996C24 105.4 26.3 114.7 32.7 118.3C34.6 119.4 36.7 119.9 39.1 119.9C46.2 119.9 55.1 114.7 64 106C73 114.7 81.9 119.9 88.9 119.9C91.3 119.9 93.4 119.4 95.3 118.3C101.7 114.6 104 105.3 101.9 92.1996C101.5 89.8996 101 87.4996 100.4 85.0996C102.8 84.3996 105.1 83.6996 107.3 82.7996C119.8 77.9996 126.6 71.3996 126.6 63.9996C126.6 56.5996 119.8 49.9996 107.3 45.1996ZM92.5 14.6996C96.6 17.0996 98 24.4996 96.3 34.9996C96 37.0996 95.5 39.2996 94.9 41.5996C89.7 40.3996 84.2 39.5996 78.4 39.0996C75 34.2996 71.5 29.9996 68 26.0996C75.4 18.7996 82.9 13.7996 89 13.7996C90.3 13.7996 91.5 14.0996 92.5 14.6996ZM81.3 73.9996C79.5 77.1996 77.4 80.3996 75.2 83.5996C71.5 83.8996 67.8 83.9996 64 83.9996C60.1 83.9996 56.4 83.8996 52.8 83.5996C50.6 80.3996 48.6 77.1996 46.8 73.9996C44.9 70.6996 43.1 67.2996 41.5 63.9996C43.1 60.6996 44.9 57.2996 46.8 53.9996C48.6 50.7996 50.7 47.5996 52.9 44.3996C56.6 44.0996 60.3 43.9996 64.1 43.9996C68 43.9996 71.7 44.0996 75.3 44.3996C77.5 47.5996 79.5 50.7996 81.3 53.9996C83.2 57.2996 85 60.6996 86.6 63.9996C84.9 67.2996 83.2 70.5996 81.3 73.9996ZM89.6 70.6996C91.1 74.1996 92.3 77.5996 93.4 80.9996C90 81.7996 86.4 82.3996 82.6 82.8996C83.8 80.9996 85.1 78.9996 86.2 76.8996C87.4 74.7996 88.5 72.6996 89.6 70.6996ZM64 97.7996C61.6 95.1996 59.3 92.3996 57.1 89.4996C59.4 89.5996 61.7 89.6996 64 89.6996C66.3 89.6996 68.6 89.5996 70.9 89.4996C68.7 92.3996 66.4 95.1996 64 97.7996ZM45.4 82.7996C41.6 82.2996 38 81.6996 34.6 80.8996C35.7 77.5996 36.9 74.0996 38.4 70.5996C39.5 72.5996 40.6 74.6996 41.8 76.6996C43 78.8996 44.2 80.7996 45.4 82.7996ZM38.4 57.2996C36.9 53.7996 35.7 50.3996 34.6 46.9996C38 46.1996 41.6 45.5996 45.4 45.0996C44.2 46.9996 42.9 48.9996 41.8 51.0996C40.6 53.1996 39.5 55.2996 38.4 57.2996ZM64 30.1996C66.4 32.7996 68.7 35.5996 70.9 38.4996C68.6 38.3996 66.3 38.2996 64 38.2996C61.7 38.2996 59.4 38.3996 57.1 38.4996C59.3 35.5996 61.6 32.7996 64 30.1996ZM86.2 51.1996L82.6 45.1996C86.4 45.6996 90 46.2996 93.4 47.0996C92.3 50.3996 91.1 53.8996 89.6 57.3996C88.5 55.2996 87.4 53.1996 86.2 51.1996ZM31.7 34.9996C30 24.4996 31.4 17.0996 35.5 14.6996C36.5 14.0996 37.7 13.7996 39 13.7996C45 13.7996 52.5 18.6996 60 26.0996C56.5 29.8996 53 34.2996 49.6 39.0996C43.8 39.5996 38.3 40.4996 33.1 41.5996C32.5 39.2996 32.1 37.0996 31.7 34.9996ZM7.00002 63.9996C7.00002 59.2996 12.7 54.2996 22.7 50.5996C24.7 49.7996 26.9 49.0996 29.1 48.4996C30.7 53.4996 32.7 58.7996 35.1 64.0996C32.7 69.3996 30.6 74.5996 29.1 79.5996C15.3 75.5996 7.00002 69.5996 7.00002 63.9996ZM35.5 113.3C31.4 110.9 30 103.5 31.7 92.9996C32 90.8996 32.5 88.6996 33.1 86.3996C38.3 87.5996 43.8 88.3996 49.6 88.8996C53 93.6996 56.5 97.9996 60 101.9C52.6 109.2 45.1 114.2 39 114.2C37.7 114.2 36.5 113.9 35.5 113.3ZM96.3 92.9996C98 103.5 96.6 110.9 92.5 113.3C91.5 113.9 90.3 114.2 89 114.2C83 114.2 75.5 109.3 68 101.9C71.5 98.0996 75 93.6996 78.4 88.8996C84.2 88.3996 89.7 87.4996 94.9 86.3996C95.5 88.6996 95.9 90.8996 96.3 92.9996ZM105.3 77.3996C103.3 78.1996 101.1 78.8996 98.9 79.4996C97.3 74.4996 95.3 69.1996 92.9 63.8996C95.3 58.5996 97.4 53.3996 98.9 48.3996C112.7 52.3996 121 58.3996 121 63.9996C121 68.6996 115.2 73.6996 105.3 77.3996Z" fill="black"/>
</svg>
