<svg width="128" height="128" viewBox="0 0 128 128" fill="none" xmlns="http://www.w3.org/2000/svg">
<g clip-path="url(#clip0_152_159)">
<path d="M63.999 124.945C30.392 124.945 3.04895 97.6049 3.04895 63.9958C3.04995 30.3878 30.3919 3.04785 64 3.04785C97.608 3.04785 124.95 30.3899 124.95 63.9979C124.95 97.6049 97.6069 124.944 64 124.944L63.999 124.945Z" fill="black"/>
<path d="M40.3 43.311C40.102 45.501 40.372 47.765 40.227 49.979C40.054 52.196 39.783 54.386 39.339 56.575C38.724 59.701 36.779 62.064 34.099 64.033C39.317 67.429 39.906 72.695 40.251 78.036C40.423 80.916 40.349 83.821 40.645 86.674C40.866 88.889 41.727 89.456 44.017 89.528C44.952 89.553 45.911 89.528 46.995 89.528V96.37C40.227 97.526 34.641 95.608 33.261 89.874C32.8075 87.7672 32.5278 85.6266 32.425 83.474C32.277 81.187 32.522 78.897 32.351 76.61C31.859 70.333 31.046 68.217 25.043 67.921V60.121C25.484 60.021 25.903 59.947 26.345 59.898C29.643 59.726 31.046 58.716 31.759 55.468C32.1012 53.6405 32.3071 51.79 32.375 49.932C32.622 46.363 32.523 42.722 33.138 39.178C33.998 34.084 37.148 31.622 42.392 31.326C43.868 31.252 45.37 31.326 47.068 31.326V38.316C46.354 38.366 45.738 38.463 45.099 38.463C40.841 38.315 40.62 39.767 40.3 43.311ZM48.495 59.504H48.396C45.934 59.381 43.818 61.3 43.694 63.762C43.572 66.247 45.491 68.365 47.953 68.486H48.248C50.684 68.634 52.775 66.762 52.924 64.326V64.081C52.974 61.595 50.981 59.554 48.495 59.504ZM63.925 59.504C61.539 59.43 59.545 61.3 59.471 63.663C59.471 63.812 59.471 63.934 59.495 64.081C59.495 66.765 61.316 68.487 64.073 68.487C66.78 68.487 68.479 66.715 68.479 63.934C68.454 61.252 66.656 59.479 63.925 59.504ZM79.726 59.504C78.5175 59.4824 77.3491 59.9377 76.4739 60.7713C75.5987 61.605 75.0872 62.7499 75.05 63.958C75.0483 64.5531 75.1642 65.1427 75.3912 65.6928C75.6181 66.2429 75.9516 66.7428 76.3724 67.1636C76.7932 67.5844 77.293 67.9179 77.8432 68.1448C78.3933 68.3717 78.9829 68.4877 79.578 68.486H79.628C81.892 68.88 84.181 66.69 84.329 64.057C84.451 61.62 82.238 59.504 79.726 59.504ZM101.408 59.873C98.553 59.75 97.124 58.79 96.412 56.083C95.9698 54.3496 95.6982 52.5772 95.601 50.791C95.403 47.493 95.427 44.171 95.206 40.873C94.69 33.047 89.029 30.316 80.809 31.668V38.46C82.113 38.46 83.122 38.46 84.131 38.485C85.879 38.509 87.208 39.175 87.38 41.119C87.552 42.891 87.552 44.687 87.724 46.484C88.07 50.054 88.266 53.671 88.881 57.19C89.423 60.094 91.417 62.26 93.901 64.031C89.546 66.96 88.265 71.144 88.044 75.845C87.922 79.068 87.848 82.317 87.676 85.566C87.528 88.519 86.495 89.479 83.516 89.553C82.681 89.577 81.868 89.651 80.933 89.701V96.665C82.681 96.665 84.28 96.765 85.879 96.665C90.85 96.37 93.853 93.959 94.839 89.134C95.256 86.476 95.501 83.794 95.576 81.111C95.747 78.651 95.724 76.165 95.97 73.729C96.339 69.914 98.086 68.34 101.9 68.093C102.261 68.0489 102.616 67.9668 102.96 67.848V60.047C102.32 59.973 101.876 59.898 101.408 59.873ZM64 6.09998C95.977 6.09998 121.9 32.02 121.9 63.998C121.9 95.975 95.977 121.897 64 121.897C32.024 121.897 6.102 95.975 6.102 63.997C6.102 32.023 32.024 6.09998 64 6.09998ZM64 0.000976589C28.71 -2.34114e-05 0 28.71 0 64C0 99.288 28.71 127.998 64 127.998C99.289 127.998 128 99.288 128 63.998C128 28.708 99.289 0.00197659 64 0.00197659V0.000976589Z" fill="white"/>
</g>
<defs>
<clipPath id="clip0_152_159">
<rect width="128" height="128" fill="white"/>
</clipPath>
</defs>
</svg>
