<svg width="128" height="128" viewBox="0 0 128 128" fill="none" xmlns="http://www.w3.org/2000/svg">
<g clip-path="url(#clip0_152_163)">
<path d="M22.148 78.3056C23.6841 80.1933 25.3047 82.0105 27.005 83.7516C21.819 85.3116 18.419 88.2096 16.299 90.7686C12.943 94.8186 11.167 100.167 11.576 104.757H2.646C4.436 100.87 11.586 89.6416 22.149 78.3066L22.148 78.3056ZM125.597 107.192H114.74C89.83 94.1927 67.96 85.0267 44.728 83.0247C44.777 79.7917 45.352 76.1317 46.459 72.0527L44.319 71.4766C43.183 75.6686 42.587 79.4617 42.519 82.8567C40.098 82.6947 37.662 82.6166 35.202 82.6166C33.121 82.6166 31.222 82.8076 29.49 83.1426C27.232 80.8886 25.308 78.7346 23.675 76.6926C34.389 65.5336 52.038 55.4376 67.398 51.6396C71.723 66.0156 81.007 75.8656 92.274 82.4926C93.1003 82.0221 93.9124 81.5269 94.709 81.0077L114.365 102.168L115.225 102.095C120.593 101.633 123.644 104.545 124.451 105.451C125.046 106.11 125.401 106.715 125.597 107.192Z" fill="black"/>
<path d="M116.008 36.4121C116.407 55.9401 106.444 71.4821 92.495 79.4521C68.82 67.6601 64.362 37.7761 68.397 21.7471C69.519 27.8771 71.561 31.7201 75.969 33.6041C85.583 30.8541 98.813 30.6371 108.559 33.3241C112.619 30.3721 114.193 25.8601 115.054 21.9191C116.126 26.5041 116.004 36.4121 116.008 36.4121Z" fill="black"/>
<path d="M49.096 58.2456L56.456 54.9006L60.067 65.6026L49.096 58.2456ZM41.604 62.1256L45.888 59.5836L49.765 66.2716L41.604 62.1256ZM33.309 67.6096L37.055 64.7996L38.928 71.4916L33.309 67.6096ZM99.536 85.2726L96.859 82.7296L93.381 88.0826L99.536 85.2726ZM104.49 91.1576L102.345 88.8836L96.727 93.1636L104.49 91.1576ZM95.526 30.6836L88.702 30.8176L92.85 39.9156L95.526 30.6836ZM68.362 47.9426L67.693 44.0626L74.252 47.5416L68.362 47.9426ZM69.966 53.6956L69.297 51.1546L73.312 52.7596L69.966 53.6956ZM115.191 49.5496L116.131 46.6056L110.778 48.8796L115.191 49.5496ZM113.184 55.5696L113.986 53.1616L109.838 54.3656L113.184 55.5696Z" fill="white"/>
<path d="M65.538 63.2029H78.451V64.7969H65.538V63.2029ZM65.538 59.3769H78.451V60.9709H65.538V59.3769ZM104.968 63.2029H117.88V64.7969H104.968V63.2029ZM104.968 59.3769H117.88V60.9709H104.968V59.3769ZM100.417 49.9259H79.374V48.4899H85.922C86.729 45.0369 86.888 41.7369 85.916 40.0639C85.5 39.3539 84.926 39.0209 84.108 39.0209C80.364 39.0209 78.818 42.9799 78.753 43.1479L78.754 43.1469L77.411 42.6429C77.488 42.4359 79.361 37.5859 84.108 37.5859C85.433 37.5859 86.486 38.1939 87.154 39.3429C88.34 41.3799 88.201 44.9049 87.397 48.4899H98.887C100.414 44.0049 103.601 41.8899 108.927 41.8899V43.3249C103.155 43.3249 101.537 45.7719 100.383 48.4899H106.653L106.638 49.9179L100.416 49.9249L100.417 49.9259ZM101.361 57.0109L101.371 57.0099ZM101.361 57.0109L101.371 57.0099Z" fill="white"/>
<path d="M101.361 57.0109L101.371 57.0099C99.669 54.4999 99.129 52.3579 99.841 49.9189L98.379 49.9259C97.87 51.5499 98.074 53.9959 99.329 56.0959H84.729C85.617 54.3159 86.44 52.1469 87.042 49.9259H85.556C84.892 52.2809 83.961 54.6119 82.912 56.4579L82.573 57.0549L90.766 62.2119L86.154 65.2519L86.944 66.4499L92.099 63.0509L97.665 66.6829L98.429 65.4689L93.269 62.2769C93.269 62.2769 100.985 57.2649 101.368 57.0199C101.365 57.0169 101.364 57.0139 101.362 57.0099L101.361 57.0109ZM92.082 61.3449L86.022 57.5299L97.865 57.5329L92.082 61.3449Z" fill="white"/>
<path d="M118.414 34.6818C118.405 32.1868 117.628 21.6438 116.2 18.7408C112.328 20.2118 105.283 24.9798 103.688 29.8538C96.046 28.7138 87.431 28.8478 79.884 30.1538C78.624 24.9088 72.296 20.8958 67.522 18.6338C65.508 22.0318 64.616 29.9108 64.842 35.4998L64.816 35.5178C65.702 58.9858 77.215 73.5978 92.269 82.4538C107.759 73.6038 118.824 56.3498 118.395 34.6708L118.415 34.6808L118.414 34.6818ZM105.526 30.1568L105.695 30.1878L105.525 30.1578L105.526 30.1568ZM104.562 29.9908C104.698 30.0128 104.835 30.0368 104.971 30.0608L104.562 29.9908ZM116.005 36.3748C116.403 55.9028 106.44 71.4448 92.492 79.4148C68.818 67.6198 64.358 37.7388 68.395 21.7098C69.518 27.8368 71.555 31.6808 75.969 33.5658C85.579 30.8158 98.809 30.5988 108.555 33.2858C112.616 30.3328 114.191 25.8228 115.051 21.8818C116.126 26.4678 116.001 36.3728 116.005 36.3748Z" fill="white"/>
<path d="M126.104 103.935C123.673 101.215 118.91 99.928 114.932 100.023C112.109 96.663 95.7419 79.427 95.7419 79.427L94.6079 80.856L114.368 102.129L115.225 102.055C120.594 101.595 123.645 104.507 124.454 105.41C125.046 106.073 125.404 106.677 125.598 107.152H114.738C89.8269 94.152 67.9579 84.987 44.7249 82.989C44.7749 79.756 45.3509 76.096 46.4549 72.019L44.3189 71.439C43.1839 75.631 42.5849 79.427 42.5179 82.821C40.0979 82.661 37.6609 82.577 35.2029 82.577C33.1179 82.577 31.2199 82.771 29.4889 83.107C27.2299 80.85 25.3069 78.699 23.6719 76.657C34.4619 65.416 52.2819 55.255 67.7199 51.519L67.2189 49.356C50.5939 53.366 32.3959 64.279 22.2559 74.823C17.5499 68.471 15.6829 63.259 15.1279 59.309C14.4279 54.32 15.6179 49.744 18.5719 46.074C23.1949 40.331 29.7639 39.926 36.5179 41.062C36.3869 42.129 36.5269 43.149 36.9539 43.779C38.7399 46.418 48.3409 47.345 54.0709 44.788C49.8419 38.862 41.2759 35.968 38.9029 37.128C38.1169 37.512 37.5229 38.218 37.1169 39.04C34.7819 38.622 32.4629 38.311 30.7689 38.324C24.8119 38.368 20.2579 40.449 16.8469 44.687C13.4999 48.844 12.1469 54.007 12.9349 59.617C13.6809 64.931 16.3119 70.583 20.7209 76.443C19.9889 77.229 19.2809 78.005 18.5989 78.767C7.85295 90.792 -0.00305176 103.687 -0.00305176 105.824V106.931H14.1739L13.9259 105.618C13.1259 101.386 14.7239 96.098 17.9989 92.144C20.0559 89.663 23.4609 86.83 28.8079 85.524C33.5619 90.164 39.6199 95.091 46.3619 99.845H56.8979V98.738C56.8979 97.489 56.2779 96.396 55.1539 95.66C53.4889 94.572 50.9199 94.422 48.5599 95.227C46.3099 92.721 45.0479 89.374 44.7759 85.216C67.6409 87.24 89.5119 96.474 114.188 109.366H127.766L127.944 108.476C128.198 107.209 127.507 105.511 126.098 103.935H126.104ZM16.2999 90.729C12.9459 94.777 11.1679 100.124 11.5759 104.714H2.64295C4.43795 100.831 11.5859 89.604 22.1479 78.264C23.684 80.1526 25.305 81.9705 27.0059 83.712C21.8199 85.271 18.4209 88.169 16.2999 90.729Z" fill="black"/>
</g>
<defs>
<clipPath id="clip0_152_163">
<rect width="128" height="128" fill="white"/>
</clipPath>
</defs>
</svg>
