<?xml version="1.0" standalone="no"?>
<!DOCTYPE svg PUBLIC "-//W3C//DTD SVG 20010904//EN"
 "http://www.w3.org/TR/2001/REC-SVG-20010904/DTD/svg10.dtd">
<svg version="1.0" xmlns="http://www.w3.org/2000/svg"
 width="1000.000000pt" height="1000.000000pt" viewBox="0 0 1000.000000 1000.000000"
 preserveAspectRatio="xMidYMid meet">

<g transform="translate(0.000000,1000.000000) scale(0.100000,-0.100000)"
fill="#000000" stroke="none">
<path d="M2135 7421 c-7 -13 2 -17 53 -26 58 -9 131 -62 167 -120 l30 -48 5
-1016 5 -1016 23 -47 c13 -26 72 -99 131 -163 157 -169 195 -242 177 -340 -13
-69 -114 -146 -236 -180 -103 -29 -172 -37 -286 -34 -107 4 -125 7 -177 33
-77 37 -117 96 -117 171 0 90 25 148 112 263 140 184 169 262 151 403 -38 284
-320 467 -590 381 -200 -63 -323 -235 -323 -450 0 -311 209 -605 529 -743 144
-61 243 -81 416 -81 129 0 165 3 255 26 275 68 502 243 615 471 84 172 78 80
84 1260 6 1000 7 1052 25 1088 28 56 106 122 163 137 72 18 73 19 73 30 0 13
-1276 14 -1285 1z"/>
<path d="M4135 6555 c-155 -22 -244 -49 -365 -109 -282 -142 -427 -354 -384
-563 16 -77 35 -115 88 -167 69 -70 124 -91 236 -91 84 0 101 3 147 28 66 34
116 84 150 150 24 45 28 63 28 142 0 103 -4 113 -95 240 -81 113 -97 173 -65
235 19 36 86 77 162 98 77 21 385 23 458 3 181 -49 281 -104 367 -200 62 -69
83 -114 83 -182 0 -69 -30 -119 -111 -183 -108 -85 -254 -148 -654 -286 -546
-188 -636 -232 -774 -381 -211 -228 -217 -528 -16 -729 71 -71 146 -116 255
-151 99 -33 286 -33 398 -1 96 27 185 68 256 116 29 20 55 36 57 36 2 0 4 -24
4 -54 0 -30 4 -66 10 -81 18 -48 45 -49 285 -15 313 45 358 50 363 45 4 -4
-21 -16 -63 -30 -62 -20 48 -25 501 -23 359 2 488 6 491 15 2 6 -9 14 -25 17
-40 9 -99 60 -125 109 l-22 42 -3 908 -2 908 55 24 c91 41 203 66 320 72 167
9 283 -24 325 -91 38 -63 19 -119 -84 -239 -37 -43 -79 -102 -94 -130 l-27
-52 -5 -705 c-5 -700 -5 -705 -27 -746 -22 -41 -75 -84 -126 -103 -16 -6 -25
-15 -22 -21 8 -13 991 -14 1000 0 3 5 -9 16 -28 23 -51 22 -107 76 -128 125
-17 39 -19 72 -18 335 l1 292 28 -81 c122 -354 359 -592 686 -690 77 -23 108
-27 229 -27 84 -1 162 4 195 12 254 60 452 199 601 418 27 40 49 75 49 78 0
17 -30 -2 -90 -58 -149 -138 -328 -188 -505 -141 -193 50 -384 248 -480 499
-56 147 -95 334 -95 460 l0 55 625 0 626 0 -7 38 c-24 134 -115 335 -204 454
-282 373 -766 470 -1170 233 -99 -59 -255 -206 -320 -304 -55 -83 -124 -228
-149 -316 l-20 -70 0 146 c-1 239 -34 370 -121 485 -105 140 -327 213 -563
185 -129 -15 -243 -43 -354 -87 -102 -39 -103 -40 -103 -16 0 10 -7 28 -16 40
-19 28 -46 28 -219 3 -71 -11 -227 -33 -345 -50 -118 -17 -221 -33 -227 -36
-23 -8 -14 -23 20 -34 18 -6 52 -29 75 -51 75 -73 73 -42 70 -946 -2 -533 -6
-805 -13 -817 -10 -16 -14 -14 -43 15 -63 66 -62 49 -62 818 0 657 -1 702 -19
759 -63 203 -277 353 -566 397 -108 16 -170 16 -290 -1z m3810 -34 c83 -37
146 -143 190 -315 24 -95 51 -281 58 -403 l3 -63 -333 0 -333 0 0 43 c0 115
40 356 81 483 71 222 197 318 334 255z m-3585 -1372 l0 -560 -37 -16 c-51 -21
-154 -13 -211 16 -229 117 -295 563 -124 827 45 68 135 156 207 201 46 28 157
92 163 93 1 0 2 -252 2 -561z"/>
</g>
</svg>
