<?xml version="1.0" standalone="no"?>
<!DOCTYPE svg PUBLIC "-//W3C//DTD SVG 20010904//EN"
 "http://www.w3.org/TR/2001/REC-SVG-20010904/DTD/svg10.dtd">
<svg version="1.0" xmlns="http://www.w3.org/2000/svg"
 width="771.000000pt" height="318.000000pt" viewBox="0 0 771.000000 318.000000"
 preserveAspectRatio="xMidYMid meet">

<g transform="translate(0.000000,318.000000) scale(0.100000,-0.100000)"
fill="#000000" stroke="none">
<path d="M925 3111 c-7 -13 2 -17 53 -26 58 -9 131 -62 167 -120 l30 -48 5
-1016 5 -1016 27 -51 c15 -29 74 -102 130 -162 57 -61 119 -137 138 -169 31
-50 35 -66 35 -123 0 -52 -5 -71 -23 -97 -74 -104 -271 -168 -497 -161 -108 3
-126 6 -178 32 -77 37 -117 96 -117 171 0 90 25 148 112 263 140 184 169 262
151 403 -38 284 -320 467 -590 381 -200 -63 -323 -235 -323 -450 0 -374 284
-697 705 -802 137 -34 352 -32 495 4 275 69 502 243 615 471 84 172 78 80 84
1260 6 1000 7 1052 25 1088 28 56 106 122 163 137 72 18 73 19 73 30 0 13
-1276 14 -1285 1z"/>
<path d="M2925 2245 c-155 -22 -244 -49 -365 -109 -282 -142 -427 -354 -384
-563 16 -77 35 -115 88 -167 69 -70 124 -91 236 -91 84 0 101 3 147 28 66 34
116 84 150 150 24 45 28 63 28 142 0 103 -4 113 -95 240 -61 84 -80 128 -80
179 0 71 68 126 190 157 75 19 377 19 445 0 181 -49 281 -104 367 -200 177
-197 83 -354 -307 -515 -66 -27 -235 -88 -375 -136 -545 -187 -636 -232 -774
-381 -211 -228 -217 -528 -16 -729 71 -71 146 -116 255 -151 98 -33 285 -33
398 -1 96 27 185 68 256 116 29 20 55 36 57 36 2 0 4 -25 4 -55 0 -69 20 -111
58 -119 15 -4 155 12 311 34 156 22 286 38 289 36 4 -5 -20 -17 -63 -31 -62
-20 48 -25 501 -23 359 2 488 6 491 15 2 6 -9 14 -25 17 -40 9 -99 60 -125
109 l-22 42 -3 908 -2 908 57 25 c135 60 363 91 483 65 125 -27 189 -85 175
-159 -10 -53 -26 -79 -100 -166 -36 -43 -78 -101 -93 -129 l-27 -52 -5 -705
c-5 -659 -6 -707 -23 -742 -21 -41 -68 -81 -122 -104 -20 -8 -33 -19 -30 -24
8 -13 992 -13 1000 0 3 5 -9 16 -28 23 -51 22 -107 76 -128 125 -17 39 -19 72
-18 335 l1 292 28 -81 c122 -353 359 -592 686 -690 77 -23 108 -27 229 -27 84
-1 162 4 195 12 254 60 452 199 601 418 27 40 49 75 49 78 0 17 -30 -2 -90
-58 -149 -138 -328 -188 -505 -141 -193 50 -384 248 -480 499 -56 147 -95 334
-95 460 l0 55 625 0 626 0 -7 38 c-12 67 -62 208 -100 284 -126 249 -326 428
-559 496 -233 69 -499 34 -715 -93 -99 -59 -255 -206 -320 -304 -55 -83 -124
-228 -149 -316 l-20 -70 0 146 c-1 239 -34 370 -121 485 -105 140 -328 213
-563 185 -130 -16 -245 -44 -355 -87 -101 -39 -102 -40 -102 -16 0 10 -7 28
-16 40 -19 28 -46 28 -219 3 -71 -11 -227 -33 -345 -50 -118 -17 -221 -33
-227 -36 -23 -8 -14 -23 20 -34 18 -6 52 -29 75 -51 75 -73 73 -42 70 -946 -2
-533 -6 -805 -13 -817 -10 -16 -14 -14 -43 15 -63 66 -62 49 -62 818 0 657 -1
702 -19 759 -64 205 -281 356 -571 397 -113 16 -165 16 -285 -1z m3810 -34
c83 -37 146 -143 190 -315 24 -95 51 -281 58 -403 l3 -63 -333 0 -333 0 0 43
c0 115 40 356 81 483 71 222 197 318 334 255z m-3585 -1372 l0 -560 -37 -16
c-91 -38 -238 6 -308 92 -86 104 -120 219 -119 400 0 113 4 141 27 211 57 172
159 280 377 402 30 17 56 31 58 32 1 0 2 -252 2 -561z"/>
</g>
</svg>
