<svg width="168" height="61" viewBox="0 0 168 61" fill="none" xmlns="http://www.w3.org/2000/svg">
<path d="M19.5453 0.185547C19.3889 0.445877 19.5899 0.525978 20.7292 0.706207C22.0247 0.886436 23.6554 1.94778 24.4595 3.10925L25.1296 4.07047L25.2413 24.4162L25.353 44.762L25.8668 45.7032C26.1572 46.2239 27.4751 47.6857 28.793 48.9673C32.3 52.3516 33.1488 53.8135 32.7467 55.776C32.4563 57.1577 30.2002 58.6997 27.4751 59.3805C25.1743 59.9613 23.633 60.1215 21.0866 60.0614C18.6964 59.9813 18.2944 59.9212 17.1328 59.4006C15.4128 58.6596 14.5193 57.4781 14.5193 55.9762C14.5193 54.1739 15.0778 53.0125 17.0211 50.7095C20.1484 47.0249 20.7962 45.4629 20.3941 42.6393C19.5453 36.9521 13.2461 33.2875 7.215 35.0097C2.74751 36.2713 0 39.7156 0 44.0211C0 50.249 4.66853 56.1364 11.8165 58.8999C15.0331 60.1215 17.2445 60.522 21.1089 60.522C23.9904 60.522 24.7946 60.4619 26.8049 60.0013C32.9477 58.6396 38.0183 55.1351 40.5425 50.5694C42.4188 47.125 42.2848 48.9673 42.4188 25.3374C42.5528 5.31204 42.5752 4.27072 42.9773 3.54981C43.6027 2.42839 45.345 1.10672 46.6183 0.806335C48.2266 0.445877 48.2489 0.425854 48.2489 0.205574C48.2489 -0.0547562 19.7463 -0.0747833 19.5453 0.185547Z" fill="white"/>
<path d="M64.2202 17.5274C60.7579 17.968 58.7698 18.5086 56.067 19.7102C49.7678 22.5538 46.5289 26.7991 47.4894 30.9845C47.8468 32.5264 48.2712 33.2874 49.4551 34.3287C50.9964 35.7305 52.225 36.151 54.7268 36.151C56.6031 36.151 56.9828 36.0909 58.0104 35.5903C59.4846 34.9094 60.6015 33.9082 61.361 32.5865C61.8971 31.6853 61.9864 31.3249 61.9864 29.7429C61.9864 27.6803 61.8971 27.48 59.8644 24.9368C58.055 22.6739 57.6976 21.4724 58.4124 20.2308C58.8369 19.5099 60.3335 18.6889 62.0311 18.2683C63.7511 17.8478 70.631 17.8078 72.2617 18.2083C76.3047 19.1895 78.5385 20.2909 80.4595 22.2133C81.8444 23.5951 82.3135 24.4962 82.3135 25.858C82.3135 27.2397 81.6434 28.241 79.8341 29.5226C77.4216 31.2248 74.1603 32.4864 65.2254 35.2499C53.0291 39.0146 51.0187 39.8957 47.9362 42.8795C43.223 47.4453 43.0889 53.4529 47.5788 57.478C49.1647 58.8998 50.84 59.801 53.2748 60.5018C55.4862 61.1627 59.6633 61.1627 62.1651 60.5219C64.3095 59.9812 66.2976 59.1601 67.8835 58.1989C68.5313 57.7984 69.1121 57.478 69.1568 57.478C69.2014 57.478 69.2461 57.9586 69.2461 58.5594C69.2461 59.1601 69.3355 59.8811 69.4695 60.1814C69.8716 61.1427 70.4747 61.1627 75.8357 60.4818C82.8273 59.5807 83.8325 59.4805 83.9442 59.5807C84.0335 59.6608 83.4751 59.9011 82.5369 60.1814C81.152 60.5819 83.6091 60.6821 93.728 60.642C101.747 60.602 104.629 60.5219 104.696 60.3416C104.74 60.2215 104.495 60.0613 104.137 60.0012C103.244 59.821 101.926 58.7997 101.345 57.8184L100.854 56.9774L100.787 38.7943L100.742 20.6113L101.97 20.1307C104.003 19.3097 106.505 18.809 109.118 18.6889C112.849 18.5086 115.44 19.1695 116.378 20.5112C117.227 21.7728 116.803 22.8942 114.502 25.2972C113.675 26.1583 112.737 27.3398 112.402 27.9005L111.799 28.9419L111.687 43.0597C111.576 57.0775 111.576 57.1776 111.084 57.9987C110.593 58.8197 109.409 59.6808 108.27 60.0613C107.912 60.1814 107.711 60.3617 107.778 60.4818C107.957 60.7421 129.915 60.7622 130.116 60.4818C130.183 60.3817 129.915 60.1614 129.49 60.0212C128.351 59.5807 127.1 58.4993 126.631 57.5181C126.251 56.7371 126.207 56.0762 126.229 50.8096L126.251 44.9622L126.877 46.5842C129.602 53.6732 134.896 58.4392 142.2 60.4017C143.92 60.8623 144.613 60.9424 147.316 60.9424C149.192 60.9624 150.934 60.8623 151.671 60.7021C157.345 59.5006 161.768 56.717 165.096 52.3315C165.699 51.5305 166.191 50.8296 166.191 50.7695C166.191 50.4291 165.521 50.8096 164.18 51.931C160.852 54.6945 156.854 55.6958 152.9 54.7546C148.589 53.7533 144.322 49.7883 142.178 44.7619C140.927 41.8182 140.056 38.0734 140.056 35.5502V34.4488H154.017H168L167.844 33.6879C167.308 31.0045 165.275 26.9794 163.287 24.5964C156.988 17.1269 146.176 15.1844 137.152 19.9305C134.941 21.1119 131.456 24.0557 130.004 26.0182C128.775 27.6803 127.234 30.5839 126.676 32.3462L126.229 33.748V30.8242C126.207 26.0382 125.469 23.4149 123.526 21.1119C121.181 18.3084 116.222 16.8465 110.95 17.4073C108.069 17.7076 105.522 18.2683 103.043 19.1495C100.764 19.9305 100.742 19.9505 100.742 19.4699C100.742 19.2696 100.586 18.9092 100.385 18.6689C99.9601 18.1081 99.357 18.1081 95.4926 18.6088C93.9067 18.8291 90.422 19.2696 87.7862 19.61C85.1504 19.9505 82.8496 20.2709 82.7156 20.331C82.2018 20.4912 82.4029 20.7915 83.1623 21.0118C83.5644 21.132 84.3239 21.5926 84.8377 22.0331C86.513 23.495 86.4683 22.8742 86.4013 40.9771C86.3566 51.6506 86.2672 57.0975 86.1109 57.3378C85.8875 57.6582 85.7982 57.6182 85.1504 57.0375C83.7431 55.7158 83.7655 56.0562 83.7655 40.6567C83.7655 27.5 83.7431 26.5989 83.341 25.4575C81.9338 21.3923 77.1536 18.3885 70.698 17.5074C68.2856 17.187 66.9007 17.187 64.2202 17.5274ZM149.326 18.2083C151.18 18.9492 152.587 21.0719 153.57 24.5163C154.106 26.4187 154.709 30.1434 154.866 32.5865L154.933 33.8481H147.494H140.056V32.987C140.056 30.6841 140.949 25.858 141.865 23.3147C143.451 18.8691 146.266 16.9467 149.326 18.2083ZM69.2461 45.6831V56.8973L68.4196 57.2177C67.2804 57.6382 64.9797 57.478 63.7064 56.8973C58.5911 54.5543 57.1169 45.623 60.9366 40.3363C61.9418 38.9746 63.9521 37.2123 65.5604 36.3112C66.5879 35.7505 69.0674 34.4689 69.2014 34.4488C69.2238 34.4488 69.2461 39.4952 69.2461 45.6831Z" fill="white"/>
</svg>
