<svg width="22" height="22" viewBox="0 0 22 22" fill="none" xmlns="http://www.w3.org/2000/svg">
<path d="M3.79376 3.8571C4.50665 4.4126 4.77422 4.37043 6.11398 4.28426L18.7423 3.55735C19.0099 3.55735 18.7872 3.30068 18.6984 3.25852L16.5999 1.80377C16.1985 1.50494 15.6624 1.1621 14.6361 1.24735L2.40909 2.10352C1.96377 2.14568 1.87395 2.36018 2.05169 2.53068L3.79376 3.8571ZM4.55156 6.68043V19.4257C4.55156 20.1105 4.908 20.3671 5.71167 20.3241L19.59 19.5541C20.3936 19.5119 20.4835 19.0407 20.4835 18.4843V5.82426C20.4835 5.26876 20.2608 4.96901 19.7687 5.01118L5.2654 5.82426C4.73026 5.86734 4.55156 6.12493 4.55156 6.68043ZM18.2521 7.36334C18.341 7.74834 18.2521 8.13334 17.8508 8.17734L17.1818 8.30567V17.7143C16.6008 18.0141 16.0657 18.1855 15.6194 18.1855C14.9046 18.1855 14.7259 17.971 14.1908 17.3302L9.81696 10.7431V17.1157L11.2007 17.4164C11.2007 17.4164 11.2007 18.1864 10.0845 18.1864L7.00556 18.3569C6.91669 18.1864 7.00556 17.7583 7.31804 17.6731L8.12075 17.4595V9.03259L7.00747 8.94642C6.91764 8.56142 7.14126 8.00592 7.76527 7.96284L11.0678 7.74926L15.6204 14.4217V8.51834L14.4593 8.39092C14.3704 7.91976 14.7269 7.57784 15.1731 7.53567L18.2521 7.36334ZM1.38276 0.948521L14.1019 0.0501892C15.6634 -0.0781439 16.0657 0.00710593 17.0471 0.691854L21.1075 3.42902C21.7764 3.89926 22 4.0276 22 4.54093V19.5541C22 20.4946 21.6436 21.0519 20.3946 21.1362L5.6228 21.9924C4.6863 22.0355 4.23908 21.9071 3.74789 21.3076L0.757797 17.586C0.222657 16.9012 0 16.3888 0 15.7893V2.44452C0 1.67544 0.357397 1.03285 1.38276 0.948521Z" fill="#ffffff"/>
</svg>
