<svg width="63" height="56" viewBox="0 0 63 56" fill="none" xmlns="http://www.w3.org/2000/svg">
<path d="M38.8225 0.0735185C36.423 0.448067 34.7141 1.58342 32.5722 4.21697C31.8699 5.08311 31.2496 5.78539 31.2027 5.77368C31.1559 5.76198 30.5707 5.08311 29.8918 4.27549C28.4404 2.51979 27.586 1.77069 26.2868 1.13864C22.9861 -0.488305 19.3693 0.00329062 16.7826 2.42615C14.7109 4.35742 13.4351 7.17824 13.0722 10.596C12.7328 13.885 13.716 17.6071 15.577 20.0182C16.5485 21.2824 22.2487 28.1647 22.3189 28.1647C22.3657 28.1647 22.553 28.0008 22.752 27.8018C23.6298 26.8655 25.1865 25.8706 26.7316 25.2502L27.8084 24.8172L26.4155 21.5984C25.6547 19.831 25.0227 18.3328 25.0227 18.2743C25.0227 18.1104 27.1412 17.2442 27.2466 17.3613C27.2934 17.4081 27.9137 18.801 28.6043 20.4279L29.8801 23.4126L29.9152 20.1704L29.9386 16.9282H31.1676H32.3966V20.2289C32.3966 22.0432 32.4434 23.4828 32.4902 23.4126C32.5488 23.3541 33.1691 21.9612 33.8597 20.3226C34.562 18.6839 35.1472 17.3145 35.1706 17.2911C35.2057 17.2325 37.3009 18.1104 37.3711 18.2157C37.3945 18.2508 36.7859 19.749 36.0133 21.5399C35.2525 23.319 34.6205 24.8055 34.6205 24.8289C34.6205 24.8523 34.9014 24.9576 35.2408 25.0747C36.6337 25.5311 38.3894 26.5846 39.5599 27.6731L40.0983 28.1764L40.4494 27.7901C41.7603 26.3505 47.1445 19.632 47.5658 18.918C49.2396 16.0738 49.8482 12.1878 49.1343 8.89883C48.4905 5.94925 46.9104 3.2923 44.8855 1.75899C43.1181 0.424658 40.7771 -0.230802 38.8225 0.0735185ZM32.0221 12.7731C32.3966 13.2178 32.3732 13.8148 31.9401 14.2479C31.4836 14.6926 31.0038 14.7043 30.5005 14.2479C29.962 13.768 29.9737 13.171 30.5122 12.6911C30.8399 12.3985 30.9686 12.3517 31.3315 12.4102C31.5773 12.4453 31.8582 12.5975 32.0221 12.7731ZM25.3504 13.8967C26.1229 14.1659 26.3219 15.0672 25.7367 15.6524C25.1397 16.2376 24.2268 16.027 23.9693 15.2427C23.782 14.6692 24.0863 14.0606 24.6715 13.8499C24.929 13.7563 24.9524 13.7563 25.3504 13.8967ZM37.8978 13.9435C38.5884 14.2947 38.6937 15.0906 38.1436 15.6524C37.6871 16.0972 37.1136 16.1206 36.6805 15.6875C36.1538 15.1608 36.3411 14.1542 37.0082 13.885C37.3711 13.7328 37.5232 13.7446 37.8978 13.9435Z" fill="black"/>
<path d="M9.42033 9.61285C2.83061 10.7248 -1.30114 16.0621 0.372628 21.3175C0.957861 23.1551 1.90594 24.3841 4.17664 26.2569C4.92574 26.8772 5.60461 27.439 5.68654 27.5093C5.80359 27.6146 5.52268 27.8955 4.42244 28.7968C2.16344 30.6461 1.25048 31.8166 0.630131 33.6776C-1.07875 38.7926 1.92935 43.5563 7.96895 45.3003C8.53077 45.4642 9.32669 45.6281 9.73635 45.6749L10.4737 45.7451L10.5674 44.7151C10.6727 43.2754 11.0122 41.8006 11.492 40.6185C12.206 38.8511 13.1541 37.6338 16.1505 34.5438C17.6487 32.9987 19.2522 31.3367 19.7204 30.8451L20.5749 29.9555L20.1301 29.4405C19.0064 28.153 13.7159 21.6335 13.2477 20.9664C12.5455 19.9598 11.6442 18.0402 11.2697 16.7527C10.7547 14.9619 10.5908 13.6041 10.6493 11.4154C10.6844 9.69478 10.661 9.43728 10.5089 9.44899C10.4152 9.46069 9.92363 9.53092 9.42033 9.61285Z" fill="black"/>
<path d="M51.8029 11.3568C51.8614 13.6743 51.6507 15.2076 51.007 17.174C50.5271 18.6371 50.1876 19.3745 49.4385 20.5566C49.0055 21.2472 43.0361 28.6445 42.1934 29.5341L41.8422 29.9086L42.2051 30.3534C42.3923 30.5992 42.6967 30.9269 42.8722 31.0908C43.0478 31.2547 44.5226 32.7646 46.1612 34.45C49.3332 37.7156 50.1642 38.7925 50.8782 40.5014C51.3815 41.7069 51.721 43.2168 51.8146 44.6097L51.8848 45.7802L52.4115 45.7333C53.1372 45.6865 54.8929 45.23 55.8761 44.8438C57.5733 44.1766 59.2822 42.9593 60.4292 41.625C62.8521 38.7691 63.0628 34.8012 60.9325 31.7112C60.3239 30.8216 59.7152 30.2013 58.1234 28.902C57.2924 28.2349 56.6252 27.6613 56.6252 27.6379C56.6252 27.6145 57.3041 27.041 58.1351 26.3504C60.3707 24.5245 61.2719 23.2955 61.9157 21.2589C62.1381 20.5098 62.1849 20.1353 62.1849 18.8009C62.1732 17.4081 62.1381 17.1155 61.8572 16.2844C61.0964 13.9903 59.3641 12.141 56.8008 10.8652C55.6888 10.3151 54.2726 9.84687 53.1489 9.6713C52.7158 9.60107 52.2243 9.53084 52.0604 9.49573L51.7561 9.44891L51.8029 11.3568Z" fill="black"/>
<path d="M29.3651 27.0059C27.9605 27.2751 26.0644 28.1764 24.9992 29.0659C23.7 30.1545 15.1673 39.0851 14.6289 39.9045C13.5521 41.5665 13.0371 43.369 13.0371 45.4291C13.0371 48.1913 14.0203 50.6142 15.8813 52.487C16.7943 53.3999 17.4029 53.8213 18.6202 54.3831C20.0013 55.0152 20.9845 55.2375 22.5061 55.2375C25.4323 55.2258 27.387 54.3012 29.8333 51.7847L31.1793 50.3918L32.3498 51.574C34.1406 53.4116 35.5334 54.2895 37.4881 54.8045C38.6117 55.1088 41.374 55.1088 42.4626 54.8162C43.7852 54.465 45.3068 53.634 46.2315 52.7679C47.5892 51.4804 48.35 50.2748 48.9704 48.4137C49.2747 47.4774 49.2981 47.3018 49.2981 45.4291C49.2981 43.5563 49.2747 43.3807 48.9704 42.4444C48.3617 40.6301 47.7648 39.647 46.3134 38.1371C40.9527 32.5422 37.4062 29.0074 36.6454 28.5041C35.5919 27.8135 34.363 27.2985 33.1925 27.0644C32.221 26.8655 30.2312 26.8304 29.3651 27.0059Z" fill="black"/>
</svg>
