<svg width="133" height="35" viewBox="0 0 133 35" fill="none" xmlns="http://www.w3.org/2000/svg">
<path d="M129.638 0.322507C128.702 0.641752 128.658 0.69809 128.723 1.29902C128.767 1.65583 128.81 4.05955 128.81 6.65107C128.832 10.2567 128.745 11.7402 128.484 13.036C127.678 16.7542 126.218 18.5946 124.431 18.1063C123.472 17.8434 123.211 15.759 123.734 12.0031C124.017 9.89986 124.475 2.85769 124.388 2.14408C124.257 1.33658 123.494 1.01733 121.969 1.18635C121.294 1.26146 120.596 1.43048 120.422 1.54315C120.161 1.73094 120.03 2.91403 119.747 7.72148C119.202 16.5289 119.028 17.5617 117.829 18.2754C117.176 18.6697 116.065 18.6509 115.651 18.2378C115.062 17.6744 115.019 16.8481 115.346 12.6416C115.999 4.62293 116.021 3.8342 115.607 2.95159C115.084 1.80606 114.365 1.4117 112.6 1.33658C111.816 1.29902 110.814 1.35536 110.4 1.46803C109.55 1.71216 108.482 2.50089 108.068 3.17694C107.698 3.79665 107.72 5.56188 108.134 6.40695C108.461 7.08299 109.92 8.49143 110.901 9.0548C111.576 9.44916 111.337 9.89986 110.225 10.2379C107.545 11.0829 104.953 9.82475 105.802 8.07829C106.195 7.27079 106.216 7.30834 105.476 7.30834C104.539 7.30834 103.667 7.62759 103.079 8.20974C102.6 8.67922 102.578 8.82945 102.687 10.2942C103.035 14.5195 101.401 18.2378 98.6559 19.4397C94.9955 21.0359 92.2067 17.881 92.686 12.6416C93.1218 7.68393 96.6296 3.64641 99.7889 4.4727C100.835 4.7356 101.27 5.46799 100.769 6.10648C100.334 6.68863 99.157 6.74497 98.9827 6.1816C98.7649 5.44921 98.0459 5.95625 98.0459 6.83887C98.0459 8.07829 99.3531 8.73556 101.14 8.39753C103.406 7.98439 104.648 5.67456 103.558 3.87176C102.796 2.576 101.576 2.14408 98.7867 2.14408C96.7168 2.14408 96.5207 2.18164 94.9738 2.83891C91.1826 4.45391 88.8295 7.66515 88.2195 12.0595C87.6094 16.5477 89.2435 20.1157 92.5989 21.618C93.3832 21.9561 93.9933 22.0687 95.7363 22.1063C97.0218 22.1626 98.2855 22.0875 98.8956 21.9373C102.883 20.9983 106.086 17.7495 107.044 13.6557L107.328 12.4726L108.504 12.3599C109.158 12.3036 110.007 12.1721 110.4 12.097L111.097 11.9656L110.966 15.0641C110.814 18.4444 110.923 18.9702 111.968 19.9467C112.687 20.6415 113.058 20.8105 114.256 20.9983C116.326 21.3364 119.049 20.5288 120.074 19.2894L120.531 18.7261L121.228 19.2894C122.514 20.3411 123.908 20.6791 125.826 20.4162C128.157 20.1157 129.66 19.0641 130.946 16.8857C132.188 14.7637 132.928 10.144 132.994 4.07833C133.016 1.01734 133.016 0.942218 132.493 0.47274C131.861 -0.109413 131.076 -0.146971 129.638 0.322507ZM111.293 3.59008C111.62 3.87176 111.663 6.74497 111.315 6.74497C110.683 6.74497 109.811 5.48677 109.811 4.58537C109.811 3.77787 110.095 3.36473 110.683 3.36473C110.879 3.36473 111.14 3.45862 111.293 3.59008Z" fill="#ffffff"/>
<path d="M73.4683 3.64567C70.6141 4.19026 68.1303 5.63625 67.3023 7.2137C66.7576 8.24655 66.7576 9.93667 67.3241 10.8756C67.8688 11.777 69.0672 12.5094 70.3962 12.716C71.7471 12.9413 71.8996 12.8474 71.8996 11.9085C71.8996 11.1198 71.856 11.0634 70.9409 10.7066C69.8951 10.3123 69.5029 9.86156 69.5029 9.09161C69.5029 7.94609 70.5487 6.96957 72.5097 6.27474C73.6426 5.88038 74.2091 5.80527 76.0393 5.80527C77.9131 5.80527 78.3706 5.8616 79.2639 6.25596C80.4841 6.78178 80.9198 7.17614 81.3774 8.1151C82.336 10.1057 81.0505 12.1714 78.6103 12.4906L77.7823 12.6221V13.561V14.5L79.2639 14.3873C85.2774 13.9554 87.9355 8.69725 83.9048 5.24189C82.2707 3.83346 81.1595 3.51421 77.5645 3.4391C75.7343 3.40154 74.3834 3.45787 73.4683 3.64567Z" fill="#ffffff"/>
<path d="M63.6215 4.09739C62.5103 4.28518 61.5516 4.75466 61.617 5.05512C61.9656 6.3321 62.1181 9.22409 62.0091 11.8719C61.7041 18.9329 60.484 22.1441 58.0655 22.1441C56.6711 22.1441 56.3007 21.0549 56.6275 17.9188C56.7365 16.886 56.9979 13.7311 57.2158 10.8954C57.608 5.80629 57.608 5.76873 57.194 5.50582C56.9543 5.35559 56.5186 5.1678 56.2353 5.11146C55.7342 4.99879 53.4247 5.39315 53.2939 5.59972C53.2504 5.65606 53.0979 7.70298 52.9453 10.1255C52.5749 16.5855 52.1392 20.7169 51.7906 21.3366C51.2895 22.1629 50.5922 22.5948 49.7861 22.5948C48.2173 22.5948 48.0213 21.8624 48.3481 17.5432C49.1107 7.81566 49.1107 7.92833 48.7185 7.02693C48.2391 5.95652 47.3676 5.43071 45.9078 5.29925C43.5329 5.09268 41.4631 6.14431 40.9837 7.79688C40.4608 9.59967 41.3106 11.271 43.4894 12.717C44.0341 13.055 44.4262 13.4494 44.3827 13.5621C44.2301 13.994 42.8139 14.4447 41.5938 14.4447C39.9161 14.4447 38.9139 13.8813 38.8267 12.8672C38.7831 12.4729 38.8485 12.0597 38.9792 11.9471C39.415 11.5715 39.2189 11.44 38.2384 11.44C37.4759 11.44 37.1055 11.5527 36.5608 11.9846L35.8418 12.5292L35.82 14.9517C35.82 17.7123 35.5149 19.1582 34.6216 20.6794C33.4015 22.7451 31.811 23.8155 29.959 23.8343C27.7802 23.8343 26.3422 22.2192 25.8847 19.2521C25.2964 15.4588 26.9523 11.0081 29.654 9.16775C30.5037 8.5856 30.7216 8.52926 32.0071 8.52926C33.3579 8.52926 33.4233 8.54804 33.8373 9.13019L34.2295 9.73113L33.6848 10.2194C33.0311 10.7828 32.8132 10.8015 32.2468 10.3133C31.7238 9.86258 31.4624 9.8438 31.2881 10.2382C31.0266 10.8203 31.1574 11.4212 31.6803 11.9471C32.1596 12.4165 32.3557 12.4729 33.4233 12.4541C35.4932 12.3978 36.8004 11.44 36.9965 9.78746C37.1926 7.90955 36.2993 6.83914 34.0552 6.27577C31.0702 5.5246 27.8456 6.40722 25.1657 8.71705C22.3332 11.1583 20.8516 14.9329 21.2438 18.8578C21.4835 21.3742 22.2461 23.0455 23.8148 24.4352C26.1025 26.4821 30.2858 26.8201 33.8809 25.2802C36.8004 24.0408 39.4804 20.8108 40.1122 17.8437L40.3737 16.5104H41.1798C41.6374 16.5104 42.4217 16.3789 42.9229 16.2287C43.424 16.0785 43.9251 15.947 44.0123 15.947C44.1212 15.947 44.143 17.3742 44.0776 19.1019C43.9687 21.9939 43.9905 22.3131 44.4044 23.1206C44.6877 23.7028 45.1452 24.1723 45.7553 24.5103C46.5615 24.9798 46.8665 25.0361 48.457 25.0361C50.004 25.0361 50.3744 24.961 51.3984 24.4915C52.052 24.1723 52.771 23.7028 53.0107 23.4211C53.5118 22.839 53.9258 22.7451 54.1001 23.1582C54.1655 23.3084 54.6884 23.6652 55.2331 23.9469C57.2158 24.9422 60.5493 24.5103 62.2488 23.0643C63.9701 21.5995 65.1902 18.8578 65.6695 15.2897C65.9746 13.0175 66.2578 7.64664 66.1271 6.31332C65.9092 4.30396 65.3645 3.8157 63.6215 4.09739ZM44.448 7.66542C44.7095 8.11612 44.7531 10.6325 44.4698 10.764C44.2737 10.8767 43.5329 10.2382 43.1625 9.61845C42.7703 8.97996 42.8575 7.74054 43.315 7.51519C43.8815 7.2335 44.1866 7.27106 44.448 7.66542Z" fill="#ffffff"/>
<path d="M74.167 7.32607L73.034 7.70165L72.9033 9.42933C72.8161 10.3871 72.6636 12.0772 72.5547 13.2227C72.4239 14.3495 72.315 16.6969 72.2932 18.4245C72.2278 21.3165 72.2496 21.5794 72.6854 22.0865C74.058 23.739 77.4787 23.8893 79.505 22.4057C80.5944 21.5982 80.9212 20.7719 80.7905 19.1006C80.638 17.3729 79.8754 16.3025 78.067 15.2884C76.4765 14.4058 76.5201 14.6124 77.0212 10.1429C77.1955 8.56549 77.2827 7.19462 77.2173 7.10072C77.0212 6.81903 75.3217 6.93171 74.167 7.32607ZM77.7184 16.9222C78.5464 17.6734 78.8732 18.3494 78.8732 19.3447C78.8732 20.7344 76.9776 21.6733 76.4765 20.5278C76.0407 19.5701 76.3022 16.3213 76.7815 16.3213C76.934 16.3213 77.348 16.603 77.7184 16.9222Z" fill="#ffffff"/>
<path d="M7.27719 7.58955C2.83244 8.1717 0 10.3313 0 13.0918C0 13.7679 0.130728 14.5003 0.32682 14.8007C0.980459 15.9087 2.85423 16.8852 4.27045 16.8852H5.01124V15.9463C5.01124 15.1951 4.92408 14.9697 4.64084 14.8946C3.24641 14.519 2.85423 14.2561 2.70171 13.5989C2.50562 12.6411 2.74529 12.0214 3.66038 11.289C4.55369 10.5754 5.03302 10.3876 6.75428 10.0121C8.3448 9.67403 10.1314 9.69281 11.5041 10.0308C15.6002 11.0825 15.9924 15.5519 12.0488 16.4157L11.0029 16.6411V17.5613V18.4814L12.2013 18.4251C13.7046 18.35 14.6415 18.0871 16.0142 17.3359C17.2997 16.6411 17.6483 16.3218 18.3237 15.2139C19.0209 14.0308 19.1081 12.5472 18.5416 11.2515C17.1689 8.11537 13.1382 6.80083 7.27719 7.58955Z" fill="#ffffff"/>
<path d="M7.25571 11.307C6.86353 11.4385 6.44955 11.6075 6.34061 11.7202C6.07916 11.9455 5.77413 14.9502 5.42552 20.659L5.16406 24.9219L5.66519 25.8045C6.34061 27.0252 7.51717 27.4759 9.56524 27.3632C12.6809 27.1754 14.1625 25.6918 13.8793 23.0628C13.6832 21.2224 12.5066 19.7576 10.6546 19.0253C9.8049 18.706 9.8049 18.6872 9.8049 17.6544C9.8049 17.0722 9.95742 15.4197 10.1317 13.9924C10.2842 12.5465 10.3714 11.2883 10.3278 11.2131C10.1535 10.9878 8.06186 11.0629 7.25571 11.307ZM10.5675 20.7529C11.9183 21.6355 12.3759 23.6825 11.4172 24.6027C10.9161 25.0721 9.89206 25.0721 9.58702 24.6027C9.23842 24.0017 9.34736 20.2647 9.73954 20.2647C9.78312 20.2647 10.1753 20.49 10.5675 20.7529Z" fill="#ffffff"/>
<path d="M95.3206 27.777C86.8233 28.0024 78.2606 28.3029 74.4042 28.5094C72.6175 28.6033 68.9354 28.7911 66.2337 28.9038C63.532 29.0165 59.4794 29.223 57.1917 29.3733C54.9257 29.5235 51.5921 29.7488 49.7837 29.8615C47.9971 29.9554 45.644 30.1244 44.5546 30.2183C43.487 30.3122 40.7853 30.5376 38.5629 30.6878C32.288 31.1385 25.0108 31.7958 21.6772 32.1901C20.4789 32.3404 18.518 32.5469 17.3196 32.6596C11.3933 33.2418 10.7397 33.3544 10.4346 33.8051C10.1732 34.2558 10.3475 34.838 10.805 34.9882C10.9793 35.0446 12.8095 34.8943 14.8794 34.6314C16.9275 34.3873 19.9996 34.0493 21.6772 33.8803C23.3549 33.7112 25.2723 33.5047 25.9259 33.4108C26.5795 33.3169 29.5863 33.0728 32.5712 32.8474C35.578 32.6408 39.5434 32.3404 41.3954 32.1901C48.3239 31.608 68.1074 30.5 79.8512 30.0305C95.5603 29.4108 101.988 29.3545 114.799 29.655C122.926 29.8615 123.1 29.8427 123.1 29.0165C123.1 28.378 122.817 28.1714 121.662 27.9836C120.115 27.7395 102.445 27.608 95.3206 27.777Z" fill="#ffffff"/>
</svg>
